<svg width="211" height="93" viewBox="0 0 211 93" fill="none" xmlns="http://www.w3.org/2000/svg">
<g clip-path="url(#clip0_4_2)">
<path d="M0 0H210.1V74.8C210.1 84.5196 202.221 92.4 192.5 92.4H0V0Z" fill="#FF7900"/>
<path d="M119.945 74.0896C116.899 74.0896 114.046 72.9181 111.916 70.7907C111.595 70.4695 111.292 70.1175 111.004 69.7303C107.869 72.5892 103.826 74.0896 99.2273 74.0907H78.6617C75.7742 74.0918 73.1331 73.1128 71.0299 71.2615C70.1994 70.5278 69.4965 69.6841 68.9333 68.7579C68.3723 69.6841 67.6727 70.5223 66.8466 71.256C64.7764 73.0809 62.0682 74.0885 59.2192 74.0907L45.2503 74.0896C42.7511 74.0896 40.341 73.5627 38.0915 72.5243C36.2688 71.6784 34.6078 70.5509 33.147 69.1605C31.8039 70.2891 30.1099 70.9172 28.3147 70.9172H21.1746C17.0089 70.9172 13.6198 67.5204 13.6198 63.3459V27.5706C13.6198 23.3972 17.0089 20.0004 21.1746 20.0004H28.3147C30.122 20.0004 31.8237 20.634 33.1712 21.7758C34.7882 20.2666 36.6769 19.0698 38.7867 18.2107C41.0087 17.3142 43.3495 16.8599 45.7497 16.8599H58.8199C61.2256 16.8599 63.5708 17.3153 65.7917 18.214C67.9653 19.0929 69.9178 20.3425 71.6041 21.9265C71.8417 22.1498 72.0771 22.3852 72.3147 22.6393C73.8173 21.0443 75.6312 19.7089 77.7091 18.6672C80.1082 17.4682 82.8098 16.8599 85.738 16.8588H102.196C104.987 16.8676 107.558 17.7927 109.635 19.5307C110.187 19.9894 110.685 20.4954 111.13 21.0487C111.382 20.7264 111.647 20.4261 111.926 20.1467C114.05 18.0281 116.899 16.861 119.95 16.8588C120.419 16.8588 120.793 16.8599 121.136 16.8698C121.831 16.8984 122.136 16.9292 122.421 16.9776C124.899 17.2658 127.149 18.302 128.931 19.9795C129.877 20.8738 130.653 21.9243 131.235 23.0804L135.171 19.5967C137.215 17.7399 139.785 16.8236 142.767 16.8236C146.293 16.8236 149.301 18.1942 151.466 20.7858L151.79 21.1818C152.204 20.6428 152.671 20.1445 153.184 19.6891C155.255 17.8642 157.96 16.861 160.806 16.8588L174.777 16.8566C177.304 16.8632 179.7 17.3912 181.93 18.4252C183.999 19.38 185.853 20.7022 187.441 22.3489C189.033 23.9945 190.302 25.9173 191.208 28.059C192.178 30.3206 192.67 32.7296 192.671 35.2156L192.672 56.0716C192.67 58.6687 192.117 61.1514 191.028 63.4526C190.045 65.5206 188.728 67.3631 187.112 68.9306C185.433 70.5575 183.454 71.8401 181.23 72.7399C179.01 73.6342 176.669 74.0885 174.268 74.0896H164.571H161.206C158.793 74.0885 156.45 73.6309 154.231 72.7355C153.068 72.2636 151.958 71.5387 150.979 70.8369L150.068 71.6047C148.859 72.5441 147.664 73.1612 146.362 73.5649C145.238 73.9092 144.109 74.0808 143.001 74.0808C140.693 74.0808 138.543 73.3097 136.549 71.7862L136.29 71.6036L135.881 71.2879L135.597 71.0701L131.335 67.3697C130.727 68.8107 129.902 70.0504 128.931 70.97C126.806 72.9764 124.03 74.083 121.115 74.0907L119.945 74.0896Z" fill="#202F7B"/>
<path d="M148.393 16.6201C146.831 15.8259 144.787 15.3892 142.77 15.3892C139.453 15.3892 136.571 16.4155 134.422 18.3603C134.369 18.3999 134.311 18.445 134.251 18.4978L134.237 18.5088L134.225 18.5198C134.225 18.5198 132.95 19.6473 131.578 20.8617C131.094 20.1665 130.538 19.5219 129.916 18.9356C127.911 17.0502 125.391 15.882 122.618 15.5542C122.296 15.5014 121.952 15.4673 121.561 15.4475C121.46 15.4387 121.316 15.4233 121.145 15.4211L121.143 15.4354C120.813 15.4266 120.446 15.4211 119.952 15.4211C116.615 15.4266 113.491 16.6685 111.12 18.929C110.936 18.7563 110.746 18.588 110.551 18.4252C108.218 16.4749 105.331 15.4343 102.208 15.4211H85.7413C82.5854 15.4244 79.6693 16.0844 77.0722 17.3813C75.3001 18.2712 73.7051 19.3591 72.3158 20.6285C70.5657 19.0434 68.5538 17.7828 66.3329 16.883C63.9393 15.915 61.4137 15.4233 58.8232 15.4211L45.7574 15.4222C43.1669 15.4222 40.6435 15.9106 38.2554 16.8764C36.3568 17.6475 34.6265 18.6727 33.092 19.9377C31.6818 19.0467 30.0384 18.5627 28.3147 18.5627H21.1768C16.2213 18.5627 12.1876 22.603 12.1876 27.5706V63.3459C12.1876 68.3113 16.2213 72.3527 21.1768 72.3527H28.3147C30.023 72.3527 31.6521 71.8764 33.0535 71.0008C34.401 72.136 35.8882 73.0831 37.4931 73.8245C39.9329 74.952 42.5443 75.524 45.2525 75.524L59.2148 75.5284C62.418 75.5229 65.4606 74.391 67.7904 72.3362C68.1985 71.9743 68.5813 71.5871 68.9333 71.1834C69.2875 71.5893 69.6703 71.9754 70.0806 72.3373C72.4522 74.4262 75.4167 75.5284 78.6573 75.5284H99.2273C103.662 75.5273 107.626 74.2271 110.839 71.7455C110.86 71.7653 110.88 71.7851 110.899 71.8049C113.306 74.2073 116.517 75.5273 119.948 75.5284L121.106 75.5306C124.402 75.5218 127.525 74.2744 129.914 72.0205C130.675 71.2978 131.29 70.4904 131.785 69.6654C133.369 71.0426 134.593 72.103 134.593 72.103L134.658 72.1602L134.723 72.2108L135.011 72.4319C135.014 72.4341 135.363 72.7047 135.385 72.7201L135.423 72.7487L135.473 72.7839C135.511 72.8103 135.634 72.8983 135.703 72.9489C137.949 74.655 140.383 75.5207 142.94 75.5207H142.969H142.953H142.985H142.969H142.998C144.255 75.5207 145.524 75.326 146.776 74.9443C148.253 74.4856 149.601 73.7893 150.792 72.8664L150.884 72.7971L150.938 72.7564L150.992 72.708L151.066 72.6442C151.877 73.1799 152.76 73.6914 153.694 74.0698C156.085 75.0356 158.61 75.5273 161.196 75.5295C161.299 75.5295 162.709 75.5295 164.571 75.5295H174.266C176.855 75.5273 179.377 75.0378 181.763 74.0764C184.164 73.1051 186.297 71.7213 188.107 69.9679C189.847 68.2761 191.265 66.2939 192.319 64.0752C193.503 61.5793 194.103 58.8898 194.107 56.0771L194.106 35.22C194.103 32.5371 193.572 29.9356 192.523 27.4892C191.551 25.1957 190.185 23.1266 188.47 21.3512C186.76 19.5769 184.76 18.1535 182.527 17.1239C180.115 16.0041 177.521 15.4332 174.827 15.4244C174.812 15.4244 174.798 15.4244 174.783 15.4244H174.779H160.808C157.612 15.4277 154.57 16.5596 152.243 18.61C152.09 18.7464 151.943 18.8839 151.797 19.0258C151.771 18.9994 151.743 18.9719 151.718 18.9477C151.718 18.9444 149.953 17.4143 148.393 16.6201ZM174.784 18.2954H174.798H174.79H174.788C174.787 18.2954 174.787 18.2954 174.784 18.2954ZM150.37 21.7109L150.771 22.2004C150.867 22.317 150.925 22.427 151.012 22.5414C151.347 22.8879 151.631 23.3004 151.901 23.7228C152.439 22.6162 153.185 21.6108 154.136 20.766C155.943 19.1765 158.309 18.2987 160.809 18.2976L174.78 18.2965C177.086 18.2998 179.284 18.7838 181.329 19.732C183.239 20.6142 184.951 21.833 186.412 23.3477C187.877 24.8657 189.053 26.6477 189.89 28.6222C190.785 30.7089 191.24 32.9265 191.241 35.2189C191.241 35.2189 191.241 56.0716 191.241 56.0738C191.24 58.4575 190.732 60.7323 189.733 62.8366C188.827 64.7484 187.609 66.449 186.114 67.8999C184.572 69.3992 182.752 70.5773 180.694 71.4111C178.647 72.235 176.484 72.6552 174.267 72.6563C174.267 72.6563 168.445 72.6563 164.572 72.6563C162.635 72.6563 161.187 72.6563 161.2 72.6563C158.981 72.6541 156.82 72.2328 154.767 71.4045C153.394 70.849 152.051 69.8557 150.881 68.9878C150.767 69.1011 150.659 69.2188 150.539 69.3299L149.145 70.508C148.12 71.3033 147.083 71.8401 145.94 72.1954C144.959 72.4935 143.958 72.6464 142.998 72.6464C141.007 72.6464 139.147 71.9688 137.404 70.6334C137.341 70.5905 137.118 70.4299 137.104 70.4211C137.086 70.4068 136.758 70.1538 136.758 70.1538L136.47 69.9338C136.47 69.9338 133.381 67.252 130.652 64.8771C130.208 66.6932 129.34 68.6116 127.947 69.9283C126.09 71.6817 123.67 72.6508 121.113 72.6574L119.95 72.6552C117.282 72.6541 114.79 71.6322 112.926 69.7732C112.23 69.0758 111.694 68.2662 111.243 67.4115C111.106 67.5666 110.984 67.7305 110.842 67.8823C107.886 71.0041 103.87 72.6563 99.2284 72.6574H78.6617C76.124 72.6574 73.8151 71.8038 71.9759 70.1824C70.3633 68.7601 69.3216 66.8802 68.9344 64.7627C68.545 66.8692 67.5099 68.7502 65.8962 70.1802C64.0878 71.7741 61.7217 72.653 59.2148 72.6574L45.2503 72.6563C42.959 72.6563 40.7546 72.1734 38.6932 71.2208C36.7891 70.3408 35.0797 69.1231 33.6112 67.604C33.4539 67.4412 33.2999 67.2729 33.1492 67.1024C32.0305 68.5478 30.2837 69.4817 28.3136 69.4817H21.1757C17.7943 69.4817 15.0542 66.7372 15.0542 63.3492V27.5717C15.0542 24.1826 17.7943 21.437 21.1757 21.437H28.3136C30.2892 21.437 32.0404 22.3786 33.1591 23.8339C33.4033 23.5688 33.6486 23.307 33.9082 23.0551C35.4504 21.5591 37.2731 20.3766 39.3268 19.5439C41.3728 18.7167 43.5354 18.2976 45.753 18.2976H58.821C61.0419 18.2987 63.2067 18.7178 65.2571 19.5472C67.2646 20.3601 69.0697 21.514 70.6251 22.977C71.2422 23.5556 71.7933 24.1881 72.3092 24.8503C72.6183 24.4543 72.9461 24.0682 73.2915 23.6975C74.6907 22.1971 76.3913 20.9387 78.3526 19.9553C80.5482 18.8564 83.032 18.2987 85.7413 18.2976H102.197C104.646 18.3053 106.903 19.1193 108.717 20.6362C109.759 21.503 110.568 22.5513 111.145 23.7228C111.613 22.7933 112.187 21.9177 112.938 21.1642C114.792 19.3184 117.282 18.2987 119.952 18.2965C120.45 18.2965 120.84 18.2998 121.195 18.3119C121.691 18.3306 121.965 18.357 122.218 18.401C124.345 18.6408 126.351 19.523 127.95 21.0267C129.261 22.2664 130.175 23.813 130.648 25.5213C132.108 24.2288 136.123 20.6747 136.123 20.6747C137.985 18.9499 140.298 18.2624 142.769 18.2624C145.693 18.2624 148.394 19.3437 150.37 21.7109Z" fill="white"/>
<path d="M21.3308 55.3203H21.1647C20.9711 55.3203 20.8028 55.3929 20.6862 55.5271C20.5751 55.6514 20.5179 55.8109 20.5179 56.0001V58.5576C20.5179 58.8062 20.5696 59.0416 20.6675 59.2638C20.5784 59.3661 20.5179 59.486 20.5179 59.6356V59.8688C20.5179 60.003 20.5685 60.1295 20.6708 60.2483C20.7797 60.3748 20.9315 60.4408 21.1075 60.4408H27.5117C27.7031 60.4408 27.8703 60.3715 27.9968 60.245C28.1233 60.1174 28.1915 59.9502 28.1915 59.7555V59.5454C28.1915 59.3672 28.1244 59.2011 28.0012 59.0724C27.8736 58.9382 27.7031 58.8656 27.5128 58.8656H22.7168C22.708 58.8656 22.7014 58.8656 22.6937 58.8678C22.4583 58.8656 22.2878 58.8073 22.1635 58.6841C22.0414 58.5686 21.9798 58.3739 21.9798 58.1011V56.0023C21.9798 55.8131 21.9215 55.6547 21.8104 55.5293C21.6905 55.3885 21.5266 55.3203 21.3308 55.3203ZM26.1114 32.0564C26.2852 32.0564 26.4304 32.1147 26.5492 32.2346C26.668 32.3545 26.7296 32.4975 26.7296 32.6746V34.6238C26.7296 34.7976 26.6691 34.9351 26.5514 35.0517C26.4315 35.1672 26.2863 35.2244 26.1114 35.2244H22.5991C22.4209 35.2244 22.2801 35.1672 22.1591 35.0451C22.0392 34.9263 21.9809 34.7822 21.9809 34.6117V32.6746C21.9809 32.4975 22.0392 32.3545 22.158 32.2346C22.2801 32.1147 22.4209 32.0564 22.5991 32.0564H26.1114ZM21.6685 30.6385C21.4397 30.7397 21.2362 30.8871 21.0657 31.0708C20.8952 31.2534 20.7588 31.4668 20.662 31.7033C20.5652 31.942 20.5168 32.1983 20.5168 32.4579V34.824C20.5168 35.0847 20.5652 35.3388 20.662 35.5808C20.7577 35.8195 20.8963 36.0329 21.0679 36.21C21.2351 36.3849 21.4386 36.5312 21.6652 36.6368C21.8962 36.7468 22.1503 36.8029 22.4165 36.8029H26.2599C26.5206 36.8029 26.7725 36.7556 27.0057 36.6533C27.2422 36.5609 27.4479 36.4201 27.6239 36.2485C27.7944 36.0769 27.933 35.8723 28.0353 35.6391C28.1376 35.4037 28.1904 35.1474 28.1904 34.8823V32.3974C28.1904 32.1323 28.1376 31.8815 28.0342 31.6483C27.933 31.425 27.7955 31.2215 27.6239 31.0455C27.4512 30.8772 27.2455 30.7386 27.0134 30.6352C26.778 30.5318 26.5228 30.4779 26.2599 30.4779H22.4165C22.1536 30.479 21.9028 30.5329 21.6685 30.6385ZM26.1114 43.7087C26.2852 43.7087 26.4304 43.7659 26.5492 43.888C26.6691 44.0068 26.7296 44.1509 26.7296 44.3236V46.2728C26.7296 46.4466 26.6691 46.5874 26.5514 46.7029C26.4315 46.8195 26.2863 46.8767 26.1114 46.8767H22.5991C22.4209 46.8767 22.2801 46.8195 22.1591 46.6963C22.0392 46.5775 21.9809 46.4334 21.9809 46.2596V44.3236C21.9809 44.1498 22.0392 44.0068 22.158 43.888C22.2801 43.767 22.4209 43.7087 22.5991 43.7087H26.1114ZM17.4676 42.7099V42.9233C17.4676 43.1114 17.5369 43.2786 17.6623 43.4073C17.7921 43.5371 17.9593 43.6042 18.1485 43.6042H20.5883C20.5454 43.7692 20.5179 43.9408 20.5179 44.1113V46.4708C20.5179 46.7359 20.5663 46.9922 20.6631 47.2276C20.7588 47.4707 20.8974 47.6808 21.069 47.8568C21.2362 48.0339 21.4397 48.1758 21.6663 48.2902C21.8973 48.398 22.1514 48.453 22.4176 48.453H26.261C26.5217 48.453 26.7736 48.4013 27.0068 48.3056C27.2433 48.2099 27.449 48.0702 27.625 47.8986C27.7955 47.7248 27.9341 47.5213 28.0364 47.2859C28.1387 47.0505 28.1915 46.7986 28.1915 46.5346V44.0442C28.1915 43.7956 28.1398 43.5547 28.0474 43.3325C28.1354 43.2148 28.1915 43.0795 28.1915 42.9211V42.7077C28.1915 42.5251 28.1244 42.3623 28.0012 42.2325C27.8736 42.0972 27.7031 42.0246 27.5128 42.0246H18.1496C17.956 42.0246 17.7888 42.0972 17.6623 42.2325C17.5336 42.3689 17.4676 42.5317 17.4676 42.7099ZM20.5212 39.3032V39.5177C20.5212 39.7069 20.5883 39.873 20.717 40.0028C20.8457 40.1315 21.0129 40.1964 21.2043 40.1964H27.5106C27.6998 40.1964 27.8692 40.1304 27.9957 40.0039C28.1222 39.8752 28.1904 39.7058 28.1904 39.5177V39.3032C28.1904 39.1239 28.1233 38.96 28.0001 38.8291C27.8725 38.6938 27.702 38.6223 27.5117 38.6223H21.2054C21.0118 38.6223 20.8424 38.6949 20.7148 38.8291C20.5883 38.9622 20.5212 39.1239 20.5212 39.3032ZM26.129 51.0127C26.3006 51.0127 26.4392 51.071 26.5536 51.1876C26.6724 51.3064 26.7296 51.445 26.7296 51.6111V53.6065C26.7296 53.7693 26.6735 53.9101 26.5536 54.03C26.4392 54.1466 26.3006 54.2082 26.129 54.2082H25.0719V51.0127H26.129ZM21.0943 49.9985C20.9194 50.1701 20.7786 50.3714 20.673 50.5925C20.5696 50.8191 20.5179 51.0644 20.5179 51.3185V53.8749C20.5179 54.0652 20.5762 54.2236 20.6884 54.3512C20.8028 54.4843 20.97 54.5558 21.1647 54.5558H21.3308C21.5266 54.5558 21.6905 54.4854 21.8104 54.349C21.9215 54.2247 21.9798 54.0652 21.9798 53.8749V51.7739C21.9798 51.5066 22.0414 51.3097 22.1635 51.1931C22.29 51.071 22.4605 51.0127 22.6882 51.0127H23.6716V54.6757C23.6716 54.9639 23.7607 55.2158 23.9334 55.4325C24.1226 55.6668 24.4152 55.7801 24.8079 55.7801H26.2874C26.5547 55.7801 26.8077 55.7295 27.0398 55.6272C27.2675 55.5216 27.471 55.3764 27.6437 55.196C27.8164 55.0112 27.9473 54.7989 28.0485 54.5591C28.1431 54.3171 28.1926 54.0652 28.1926 53.8056V51.4109C28.1926 51.148 28.1431 50.8939 28.0485 50.653C27.9484 50.4143 27.8142 50.202 27.6415 50.0271C27.471 49.85 27.2708 49.7048 27.0442 49.5992C26.8099 49.487 26.5569 49.4353 26.2918 49.4353H22.4803C22.2152 49.4353 21.9611 49.4859 21.7213 49.5871C21.4826 49.6905 21.2714 49.828 21.0943 49.9985Z" fill="white"/>
<path d="M147.131 59.0944C147.075 59.0427 135.175 48.9359 131.011 45.2971L145.99 32.0465C147.341 30.9014 147.632 29.6452 147.634 28.8004C147.634 27.9039 147.29 27.036 146.643 26.2902C146.676 26.3276 145.928 25.4091 145.928 25.4091C144.811 24.077 143.574 23.7987 142.728 23.7987C141.694 23.7987 140.778 24.1507 140.081 24.8206C140.118 24.7865 130.204 33.5634 125.24 37.9546L125.242 28.2207C125.24 27.0382 124.801 26.0042 123.968 25.2188C123.161 24.4576 122.163 24.0572 121.085 24.0572C121.082 24.0572 119.916 24.0561 119.916 24.0561C118.759 24.0572 117.735 24.4697 116.955 25.2507C116.171 26.0317 115.757 27.0569 115.756 28.2185V62.742C115.755 63.8992 116.166 64.9244 116.949 65.7098C117.73 66.4908 118.756 66.9055 119.909 66.9055L121.08 66.9077C122.166 66.9044 123.164 66.504 123.967 65.7461C124.802 64.9574 125.24 63.919 125.24 62.7409C125.24 62.7431 125.24 56.5391 125.24 52.5164L140.223 65.5437L140.296 65.6086L140.376 65.6614C140.554 65.7846 140.726 65.9067 140.895 66.0343C141.642 66.6118 142.308 66.8868 142.98 66.8835C143.407 66.8846 143.852 66.8164 144.292 66.6822C144.765 66.5337 145.191 66.3148 145.568 66.0222C145.627 65.9727 146.709 65.0564 146.709 65.0564C147.708 64.1511 148.216 63.0599 148.214 61.8697C148.214 61.224 148.088 60.6377 147.827 60.1141C147.59 59.6488 147.376 59.3331 147.131 59.0944ZM109.425 50.3043C109.424 47.298 108.466 44.9737 106.581 43.3974C104.779 41.8948 102.686 41.1347 100.353 41.1336L86.948 41.1325C85.4685 41.1325 84.9658 40.5374 84.7997 40.3449C84.2838 39.7333 84.0308 39.1734 84.0308 38.6311V35.5456C84.0308 34.4621 84.4279 33.9506 84.7293 33.6602C85.2122 33.1971 86.0163 32.9595 87.1185 32.9617H102.197C103.254 32.9617 104.199 32.624 105.002 31.9552C105.888 31.216 106.354 30.1831 106.354 28.9665L106.355 28.0513C106.353 26.8292 105.887 25.7974 105.008 25.0648C104.206 24.3938 103.231 24.0539 102.114 24.0528H85.7017C83.8933 24.0528 82.2697 24.4081 80.876 25.1055C79.534 25.7776 78.3812 26.6257 77.4495 27.6267C76.5101 28.6299 75.783 29.7563 75.2913 30.9707C74.7952 32.1928 74.5422 33.3423 74.5422 34.3895C74.5422 34.3906 74.5422 39.5628 74.5422 39.5628C74.5433 41.0203 74.8293 42.3997 75.3925 43.6625C75.9568 44.9165 76.6938 45.989 77.5903 46.8514C78.4868 47.7171 79.5417 48.4046 80.7253 48.9007C81.921 49.3957 83.1453 49.652 84.3597 49.652L98.0151 49.6542C98.6388 49.6542 98.9259 49.7642 99.0194 49.8104C99.2416 49.9215 99.4088 50.0524 99.5331 50.2152C99.675 50.3989 99.7718 50.5914 99.8224 50.7883C99.8994 51.071 99.9379 51.3328 99.9357 51.5682V54.9056C99.9357 55.2411 99.8895 55.6371 99.8015 56.0837C99.7267 56.4588 99.598 56.7932 99.4154 57.1045C99.2482 57.3927 99.0381 57.6259 98.7697 57.8272C98.6245 57.9394 98.3572 57.9966 98.0162 57.9966C98.0151 57.9966 78.6122 57.9944 78.6122 57.9944C77.4924 57.9944 76.4925 58.3552 75.7225 59.0394C74.8964 59.7654 74.4553 60.7895 74.4564 61.9885L74.4553 62.9048C74.4553 64.1071 74.8964 65.129 75.7269 65.8616C76.5101 66.5524 77.4814 66.9 78.6155 66.9L99.1844 66.9022C102.256 66.9022 104.762 65.899 106.634 63.9223C108.486 61.9687 109.423 59.2693 109.424 55.8923L109.425 50.3043ZM175.146 57.1804C174.568 57.7414 173.93 58.0032 173.141 58.0021L162.253 57.9988C161.462 58.0021 160.824 57.7392 160.246 57.1771C159.685 56.6315 159.423 55.9902 159.421 55.1619C159.421 55.163 159.423 51.8971 159.423 49.8269L175.972 49.8291L175.971 55.1663C175.97 55.9924 175.71 56.6315 175.146 57.1804ZM185.457 56.0749L185.459 35.2277C185.457 33.724 185.16 32.2687 184.573 30.9014C184.002 29.5594 183.221 28.3659 182.246 27.3583C181.276 26.3518 180.147 25.5466 178.882 24.9625C177.589 24.3608 176.195 24.0561 174.735 24.0561H160.767C159.654 24.0561 158.657 24.4147 157.886 25.0934C157.052 25.8326 156.615 26.8556 156.615 28.0524C156.616 28.048 156.616 28.9643 156.616 28.9643C156.619 30.1699 157.055 31.1918 157.883 31.9211C158.665 32.6119 159.635 32.9617 160.771 32.9617C160.767 32.9617 172.232 32.9628 172.232 32.9628C173.584 32.9639 174.552 33.2543 175.11 33.8307C175.687 34.4291 175.97 35.2662 175.97 36.386C175.97 36.386 175.969 39.356 175.969 41.3063H156.418C154.759 41.3063 153.276 41.8233 152.01 42.8419C150.632 43.943 149.933 45.6711 149.934 47.9745L149.933 56.0661C149.933 57.572 150.233 59.0097 150.827 60.3352C151.417 61.642 152.243 62.8014 153.287 63.7859C154.324 64.7583 155.532 65.5283 156.876 66.0739C158.242 66.6261 159.682 66.9044 161.161 66.9055C161.162 66.9055 174.225 66.9066 174.225 66.9066C175.705 66.9055 177.145 66.6283 178.511 66.0783C179.869 65.5272 181.07 64.7506 182.082 63.7694C183.079 62.8014 183.894 61.6585 184.506 60.3682C185.136 59.0449 185.455 57.5995 185.457 56.0749ZM43.9732 41.1292V35.7942C43.9732 34.9659 44.235 34.3257 44.7982 33.7768C45.3757 33.218 46.0115 32.9551 46.8035 32.9551L57.6935 32.9562C58.4833 32.9562 59.1191 33.2191 59.6999 33.7812C60.2598 34.329 60.5216 34.9681 60.5238 35.7975C60.5238 35.7975 60.5238 39.0612 60.5227 41.1303L43.9732 41.1292ZM70.008 34.8911C70.0091 33.3841 69.7088 31.9497 69.1126 30.622C68.5263 29.3152 67.6991 28.1558 66.6552 27.1724C65.6201 26.2 64.4134 25.4289 63.0637 24.8811C61.7008 24.3311 60.2587 24.0506 58.7781 24.0506L45.7156 24.0495C44.2383 24.0506 42.7973 24.3289 41.4322 24.8778C40.0737 25.43 38.8725 26.2077 37.8616 27.1867C36.8628 28.1558 36.0455 29.3009 35.4361 30.5857C34.8058 31.9167 34.4857 33.3621 34.4857 34.8834V55.7317C34.4846 57.2277 34.7816 58.6852 35.3679 60.0569C35.9432 61.4044 36.7242 62.5968 37.6966 63.6044C38.6679 64.6065 39.7987 65.4139 41.0604 65.9991C42.3584 66.5986 43.7554 66.9 45.2063 66.9L59.1741 66.9033C60.2928 66.9 61.2894 66.5447 62.0583 65.8649C62.8877 65.129 63.3255 64.1071 63.3255 62.907V61.994C63.3255 60.795 62.8899 59.7731 62.0627 59.0383C61.2784 58.3497 60.3104 57.9977 59.1763 57.9977H47.7099C46.358 57.9977 45.39 57.7029 44.8323 57.1298C44.2537 56.5281 43.9732 55.6921 43.9732 54.5723C43.9732 54.5723 43.9732 51.6034 43.9732 49.6509L63.5224 49.652C65.1856 49.6498 66.6673 49.1339 67.9301 48.1164C69.3084 47.0153 70.008 45.2883 70.008 42.9849V34.8911Z" fill="#F47920"/>
</g>
<defs>
<clipPath id="clip0_4_2">
<rect width="210.1" height="92.4" fill="white"/>
</clipPath>
</defs>
</svg>
